<?xml version="1.0" standalone="no"?>
<!DOCTYPE svg PUBLIC "-//W3C//DTD SVG 20010904//EN"
 "http://www.w3.org/TR/2001/REC-SVG-20010904/DTD/svg10.dtd">
<svg version="1.0" xmlns="http://www.w3.org/2000/svg"
 width="1200.000000pt" height="1200.000000pt" viewBox="0 0 1200.000000 1200.000000"
 preserveAspectRatio="xMidYMid meet">

<g transform="translate(0.000000,1200.000000) scale(0.100000,-0.100000)"
fill="#000000" stroke="none">
<path d="M0 6000 l0 -6000 6000 0 6000 0 0 6000 0 6000 -6000 0 -6000 0 0
-6000z m6174 2326 c177 -45 316 -139 433 -291 46 -60 95 -156 90 -177 -3 -9 0
-16 6 -15 5 1 19 -29 29 -68 16 -57 18 -94 15 -200 -5 -133 -29 -251 -50 -238
-6 4 -7 1 -2 -6 11 -18 -26 -96 -37 -79 -6 9 -7 6 -3 -8 4 -15 -9 -40 -44 -88
-184 -249 -471 -361 -767 -300 -81 17 -200 69 -277 123 -61 41 -199 192 -192
209 2 7 0 10 -5 7 -11 -7 -58 90 -90 185 -31 90 -38 258 -16 366 44 218 205
425 406 522 173 83 332 101 504 58z m1137 -1446 c46 -33 89 -64 95 -69 6 -5
19 -11 30 -15 29 -10 66 -44 60 -55 -3 -5 1 -12 10 -15 9 -4 13 -2 8 5 -4 6
20 -6 52 -26 33 -21 70 -45 84 -54 59 -37 108 -79 102 -87 -4 -4 -2 -4 4 -1 6
4 63 -28 125 -71 186 -125 196 -134 208 -174 17 -55 14 -2331 -2 -2325 -7 2
-11 13 -9 23 2 15 1 16 -6 5 -6 -7 -15 -10 -22 -6 -9 6 -9 10 1 17 11 8 10 8
-4 4 -12 -4 -55 20 -130 71 -62 42 -132 90 -157 107 -97 64 -276 190 -288 203
-7 7 -18 13 -23 13 -5 0 -23 10 -39 22 l-30 22 0 507 c0 507 -3 559 -34 559
-7 0 -22 7 -35 16 -18 13 -20 19 -10 26 11 8 10 9 -4 4 -11 -3 -51 18 -115 61
-130 88 -126 84 -110 95 8 6 5 7 -11 3 -17 -5 -22 -4 -16 5 5 9 4 11 -4 6 -6
-4 -22 -1 -35 8 -23 14 -28 12 -107 -41 -46 -31 -90 -56 -97 -56 -6 0 -10 -2
-8 -5 12 -11 -220 -166 -235 -157 -5 4 -8 1 -7 -5 3 -11 -122 -99 -430 -306
l-122 -82 -93 61 c-50 34 -94 65 -97 68 -3 4 -19 15 -37 25 -104 62 -263 176
-257 186 4 7 3 8 -5 4 -14 -9 -72 31 -68 47 1 7 -4 11 -11 9 -19 -4 -72 30
-65 41 3 6 1 7 -4 4 -6 -4 -22 2 -36 13 -14 11 -29 20 -33 20 -10 0 -44 31
-44 40 0 4 14 13 30 20 17 7 30 16 30 21 0 5 5 9 11 9 6 0 36 19 67 43 32 23
65 47 74 52 25 15 256 174 393 270 66 47 129 89 140 94 11 5 48 30 83 55 34
25 65 46 70 46 4 0 0 -5 -8 -11 -13 -9 -13 -10 0 -6 8 2 14 9 13 15 -1 6 19
23 45 38 26 14 56 35 67 44 11 10 62 46 114 80 52 34 99 66 105 71 6 5 79 55
161 112 83 56 183 125 223 152 40 28 80 55 90 60 9 6 20 14 23 19 4 5 12 5 18
2 6 -4 10 -3 9 2 -2 5 33 35 77 65 106 73 119 73 226 -3z"/>
<path d="M6581 8033 c7 -12 15 -20 18 -17 3 2 -3 12 -13 22 -17 16 -18 16 -5
-5z"/>
</g>
</svg>
