<?xml version="1.0" standalone="no"?>
<!DOCTYPE svg PUBLIC "-//W3C//DTD SVG 20010904//EN"
 "http://www.w3.org/TR/2001/REC-SVG-20010904/DTD/svg10.dtd">
<svg version="1.0" xmlns="http://www.w3.org/2000/svg"
 width="512.000000pt" height="512.000000pt" viewBox="0 0 512.000000 512.000000"
 preserveAspectRatio="xMidYMid meet">

<g transform="translate(0.000000,512.000000) scale(0.100000,-0.100000)"
fill="#000000" stroke="none">
<path d="M1940 4794 c-47 -20 -77 -50 -90 -88 -5 -17 -17 -125 -25 -240 -8
-115 -16 -210 -18 -212 -1 -1 -40 -21 -87 -44 -47 -23 -121 -66 -165 -95 l-81
-52 -194 93 c-205 98 -240 107 -303 80 -18 -7 -41 -24 -53 -37 -11 -13 -150
-246 -309 -518 -316 -543 -315 -540 -273 -620 20 -38 49 -62 203 -167 l181
-122 -8 -101 c-5 -56 -4 -147 0 -203 5 -57 5 -107 1 -113 -4 -5 -84 -64 -178
-130 -193 -136 -217 -164 -209 -244 4 -41 49 -123 294 -542 159 -272 300 -506
315 -521 30 -31 97 -51 136 -42 15 4 113 49 217 101 l188 94 67 -44 c49 -33
237 -136 258 -143 2 0 10 -95 18 -210 9 -115 20 -223 26 -241 13 -41 69 -90
111 -98 18 -3 297 -5 620 -3 574 3 587 3 614 24 63 47 66 57 88 298 l21 224
97 50 c53 28 128 71 167 96 l70 45 195 -94 c208 -102 252 -113 316 -80 39 20
48 34 363 575 262 449 277 479 277 525 0 32 -7 62 -19 81 -12 19 -92 83 -200
158 -157 110 -180 130 -176 149 7 30 11 237 6 322 l-5 70 164 112 c90 62 176
124 191 139 35 34 53 85 46 131 -5 31 -536 953 -594 1031 -31 42 -72 62 -125
62 -34 0 -85 -20 -238 -93 l-195 -93 -75 49 c-41 26 -119 70 -172 98 -68 34
-98 55 -98 67 0 9 -7 103 -16 207 -19 227 -32 266 -104 303 l-44 22 -581 0
c-495 -1 -585 -3 -615 -16z m1024 -351 c3 -27 10 -109 16 -183 6 -74 15 -149
21 -166 12 -38 63 -87 109 -104 19 -7 80 -36 135 -63 88 -44 135 -73 288 -179
69 -48 108 -41 307 53 94 45 173 80 174 78 18 -19 405 -693 401 -698 -3 -3
-74 -53 -157 -111 -83 -58 -161 -118 -172 -133 -23 -32 -24 -38 -11 -296 6
-109 4 -188 -5 -268 -19 -164 -17 -167 189 -312 155 -108 161 -114 148 -135
-8 -11 -96 -163 -197 -336 -100 -173 -188 -321 -195 -328 -10 -11 -44 3 -186
73 -219 109 -222 109 -359 11 -112 -81 -188 -124 -312 -177 -102 -44 -142 -76
-157 -123 -6 -17 -15 -92 -21 -166 -6 -74 -13 -156 -16 -182 l-6 -48 -199 0
-199 0 0 304 0 304 88 7 c328 26 600 152 833 384 256 256 381 556 382 916 1
166 -14 266 -63 414 -155 475 -609 845 -1090 887 -41 4 -82 8 -90 10 -8 1 -25
3 -37 3 l-23 1 0 305 0 305 199 0 199 0 6 -47z m-1801 -584 c23 -12 44 -23 45
-25 3 -2 -393 -710 -404 -723 -6 -6 -104 62 -104 72 0 16 402 697 411 697 6 0
29 -10 52 -21z m1602 -328 c291 -60 542 -256 675 -526 59 -120 89 -224 98
-345 44 -544 -333 -1006 -871 -1070 -407 -48 -811 176 -993 550 -68 140 -97
270 -97 430 0 171 30 296 109 450 133 259 386 453 674 514 97 21 297 20 405
-3z m-1508 -878 c-3 -10 -5 -4 -5 12 0 17 2 24 5 18 2 -7 2 -21 0 -30z m0
-200 c-3 -10 -5 -2 -5 17 0 19 2 27 5 18 2 -10 2 -26 0 -35z m-237 -783 c107
-179 199 -334 206 -345 13 -20 9 -23 -50 -52 l-64 -32 -200 343 c-111 188
-202 347 -204 354 -2 6 19 27 46 47 40 28 52 33 62 23 6 -7 98 -159 204 -338z"/>
<path d="M2425 3156 c-172 -42 -329 -167 -404 -320 -114 -234 -69 -507 114
-691 117 -117 255 -175 420 -175 151 0 281 46 394 140 70 58 150 174 181 261
31 89 38 250 15 338 -58 223 -230 395 -448 446 -74 18 -203 18 -272 1z m231
-323 c70 -24 147 -103 168 -173 33 -110 9 -214 -66 -287 -59 -56 -101 -75
-180 -81 -120 -8 -215 45 -267 149 -56 112 -38 234 47 322 79 83 187 108 298
70z"/>
<path d="M2514 2801 c-92 -66 -129 -141 -122 -248 2 -37 12 -84 22 -104 20
-43 79 -105 119 -125 l27 -15 0 261 c0 143 -2 260 -3 260 -2 0 -22 -13 -43
-29z"/>
</g>
</svg>
