<?xml version="1.0" standalone="no"?>
<!DOCTYPE svg PUBLIC "-//W3C//DTD SVG 20010904//EN"
 "http://www.w3.org/TR/2001/REC-SVG-20010904/DTD/svg10.dtd">
<svg version="1.0" xmlns="http://www.w3.org/2000/svg"
 width="512.000000pt" height="512.000000pt" viewBox="0 0 512.000000 512.000000"
 preserveAspectRatio="xMidYMid meet">

<g transform="translate(0.000000,512.000000) scale(0.100000,-0.100000)"
fill="#000000" stroke="none">
<path d="M1045 5109 c-400 -51 -759 -316 -934 -690 -47 -101 -77 -201 -96
-329 -22 -142 -22 -2918 0 -3060 29 -191 86 -339 189 -495 176 -263 444 -442
766 -512 78 -16 147 -18 835 -18 822 0 811 -1 995 62 395 135 693 475 785 893
10 47 18 147 22 271 6 194 5 197 -19 251 -29 62 -64 92 -132 110 -85 23 -184
-21 -222 -99 -15 -32 -20 -71 -25 -233 -7 -221 -18 -279 -79 -406 -77 -160
-214 -297 -374 -374 -164 -78 -121 -75 -946 -75 -656 0 -741 2 -795 17 -106
29 -172 58 -247 107 -176 115 -286 270 -346 486 -16 55 -17 189 -17 1545 0
1426 1 1488 19 1555 79 294 287 499 591 583 54 15 139 17 795 17 824 0 782 3
946 -75 163 -79 295 -211 374 -374 61 -128 73 -186 80 -406 3 -107 10 -204 15
-215 32 -76 122 -131 200 -122 71 8 129 48 161 112 l27 56 -6 197 c-6 207 -18
287 -64 422 -146 429 -537 744 -993 800 -104 12 -1404 11 -1505 -1z"/>
</g>
</svg>
